<svg width="2760" height="2409" viewBox="0 0 2760 2409" fill="none" xmlns="http://www.w3.org/2000/svg">
<rect x="194.295" y="360.908" width="2550" height="1920" transform="rotate(0.130864 194.295 360.908)" fill="url(#paint0_linear_10049_43)"/>
<g filter="url(#filter0_f_10049_43)">
<path d="M1641.8 1169.86C1641.61 1252.22 1570.39 1318.82 1482.73 1318.62C1395.07 1318.42 1324.15 1251.49 1324.34 1169.13C1324.53 1086.77 1395.75 1020.16 1483.41 1020.36C1571.08 1020.56 1641.99 1087.49 1641.8 1169.86Z" fill="url(#paint1_radial_10049_43)"/>
</g>
<g filter="url(#filter1_f_10049_43)">
<ellipse cx="307.071" cy="2065.49" rx="158.731" ry="149.131" transform="rotate(0.130864 307.071 2065.49)" fill="url(#paint2_radial_10049_43)"/>
</g>
<g filter="url(#filter2_f_10049_43)">
<ellipse cx="569.175" cy="927.677" rx="223.696" ry="210.167" transform="rotate(0.130864 569.175 927.677)" fill="url(#paint3_radial_10049_43)" fill-opacity="0.5"/>
</g>
<g filter="url(#filter3_f_10049_43)">
<ellipse cx="2370.18" cy="2033.68" rx="223.696" ry="210.167" transform="rotate(0.130864 2370.18 2033.68)" fill="url(#paint4_radial_10049_43)" fill-opacity="0.5"/>
</g>
<g filter="url(#filter4_f_10049_43)">
<ellipse cx="1865.18" cy="570.367" rx="223.696" ry="210.167" transform="rotate(0.130864 1865.18 570.367)" fill="url(#paint5_radial_10049_43)" fill-opacity="0.5"/>
</g>
<path d="M2744 1012.13C2464.21 999.386 2148.43 1015.99 1947.5 1165.27C1826.76 1254.94 1746.77 1365.05 1613.16 1447.59C1524.8 1502.02 1421.01 1545.59 1312.64 1579.46C1271.85 1592.19 1230.1 1603.46 1187.57 1613.22C717.539 1721.26 294.163 2305.23 191.5 2271.5" stroke="white" stroke-opacity="0.15" stroke-miterlimit="10"/>
<path d="M2739.17 1716.36C2588.53 1537.15 2370.67 1368.2 2017.76 1409.93C1805.76 1434.95 1586.97 1506.09 1378.15 1515.84C1240.28 1522.12 1109.8 1507.59 991.512 1479.92C947.016 1469.49 904.198 1456.91 863.234 1442.25C410.223 1280.42 204.892 661.013 194.5 564" stroke="white" stroke-opacity="0.15" stroke-miterlimit="10"/>
<path d="M2730.5 993.889C2603.5 848 1694 651.5 1531.01 815.812C1404.98 869.652 1293.54 948.523 1163.27 993.889C1077.21 1023.76 987.341 1041.5 899.912 1050.13C867.014 1053.36 834.315 1055.16 801.951 1055.54C444.168 1059.83 246.184 870.107 199.634 822.21" stroke="white" stroke-opacity="0.1" stroke-miterlimit="10"/>
<path d="M2741.14 1630.33C2528.42 1467.58 2260.05 1307 1962.66 1308.29C1783.98 1309.03 1619.32 1347.34 1436.84 1335.72C1316.29 1327.92 1193.3 1303.56 1075.48 1269.47C1031.15 1256.62 987.386 1242.16 944.373 1226.14C468.84 1049.28 246.69 719.982 195.16 638.596" stroke="white" stroke-opacity="0.1" stroke-miterlimit="10"/>
<path d="M168.373 1163.81C349.911 1154.98 560.207 1114.03 718.233 949.245C813.191 850.264 884.948 733.973 987.108 641.129C1054.65 579.878 1130.42 528.306 1207.51 486.074C1236.52 470.198 1265.9 455.71 1295.54 442.672C1623.12 298.383 1879.39 395.315 1940.93 421.132" stroke="white" stroke-opacity="0.1" stroke-miterlimit="10"/>
<path d="M190.459 1829.36C338.905 1822.27 510.927 1788.59 640.45 1652.22C718.281 1570.3 777.175 1474.01 860.882 1397.19C916.221 1346.51 978.271 1303.86 1041.38 1268.96C1065.13 1255.83 1089.19 1243.86 1113.45 1233.09C1381.56 1113.92 1590.9 1194.57 1641.17 1216.05M1641.17 1216.05C1855.5 1339 2447.5 1216.05 2732 385.5" stroke="white" stroke-opacity="0.1" stroke-miterlimit="10"/>
<defs>
<filter id="filter0_f_10049_43" x="1320.34" y="1016.36" width="325.461" height="306.262" filterUnits="userSpaceOnUse" color-interpolation-filters="sRGB">
<feFlood flood-opacity="0" result="BackgroundImageFix"/>
<feBlend mode="normal" in="SourceGraphic" in2="BackgroundImageFix" result="shape"/>
<feGaussianBlur stdDeviation="2" result="effect1_foregroundBlur_10049_43"/>
</filter>
<filter id="filter1_f_10049_43" x="144.34" y="1912.36" width="325.461" height="306.262" filterUnits="userSpaceOnUse" color-interpolation-filters="sRGB">
<feFlood flood-opacity="0" result="BackgroundImageFix"/>
<feBlend mode="normal" in="SourceGraphic" in2="BackgroundImageFix" result="shape"/>
<feGaussianBlur stdDeviation="2" result="effect1_foregroundBlur_10049_43"/>
</filter>
<filter id="filter2_f_10049_43" x="341.479" y="713.51" width="455.392" height="428.334" filterUnits="userSpaceOnUse" color-interpolation-filters="sRGB">
<feFlood flood-opacity="0" result="BackgroundImageFix"/>
<feBlend mode="normal" in="SourceGraphic" in2="BackgroundImageFix" result="shape"/>
<feGaussianBlur stdDeviation="2" result="effect1_foregroundBlur_10049_43"/>
</filter>
<filter id="filter3_f_10049_43" x="2142.48" y="1819.51" width="455.392" height="428.334" filterUnits="userSpaceOnUse" color-interpolation-filters="sRGB">
<feFlood flood-opacity="0" result="BackgroundImageFix"/>
<feBlend mode="normal" in="SourceGraphic" in2="BackgroundImageFix" result="shape"/>
<feGaussianBlur stdDeviation="2" result="effect1_foregroundBlur_10049_43"/>
</filter>
<filter id="filter4_f_10049_43" x="1637.48" y="356.2" width="455.392" height="428.334" filterUnits="userSpaceOnUse" color-interpolation-filters="sRGB">
<feFlood flood-opacity="0" result="BackgroundImageFix"/>
<feBlend mode="normal" in="SourceGraphic" in2="BackgroundImageFix" result="shape"/>
<feGaussianBlur stdDeviation="2" result="effect1_foregroundBlur_10049_43"/>
</filter>
<linearGradient id="paint0_linear_10049_43" x1="194.295" y1="2280.91" x2="2840.29" y2="503.844" gradientUnits="userSpaceOnUse">
<stop stop-color="#000057"/>
<stop offset="1" stop-color="#4C1AB6"/>
</linearGradient>
<radialGradient id="paint1_radial_10049_43" cx="0" cy="0" r="1" gradientUnits="userSpaceOnUse" gradientTransform="translate(1467.07 1170.2) rotate(90.1309) scale(149.131 158.731)">
<stop stop-color="#8236FE"/>
<stop offset="1" stop-color="#A873FF" stop-opacity="0"/>
</radialGradient>
<radialGradient id="paint2_radial_10049_43" cx="0" cy="0" r="1" gradientUnits="userSpaceOnUse" gradientTransform="translate(307.071 2065.49) rotate(90) scale(149.131 158.731)">
<stop stop-color="#8236FE"/>
<stop offset="1" stop-color="#A873FF" stop-opacity="0"/>
</radialGradient>
<radialGradient id="paint3_radial_10049_43" cx="0" cy="0" r="1" gradientUnits="userSpaceOnUse" gradientTransform="translate(569.175 927.677) rotate(90) scale(210.167 223.696)">
<stop stop-color="#8236FE"/>
<stop offset="1" stop-color="#A873FF" stop-opacity="0"/>
</radialGradient>
<radialGradient id="paint4_radial_10049_43" cx="0" cy="0" r="1" gradientUnits="userSpaceOnUse" gradientTransform="translate(2370.18 2033.68) rotate(90) scale(210.167 223.696)">
<stop stop-color="#8236FE"/>
<stop offset="1" stop-color="#A873FF" stop-opacity="0"/>
</radialGradient>
<radialGradient id="paint5_radial_10049_43" cx="0" cy="0" r="1" gradientUnits="userSpaceOnUse" gradientTransform="translate(1865.18 570.367) rotate(90) scale(210.167 223.696)">
<stop stop-color="#8236FE"/>
<stop offset="1" stop-color="#A873FF" stop-opacity="0"/>
</radialGradient>
</defs>
</svg>
